<?xml version="1.0" standalone="no"?><!DOCTYPE svg PUBLIC "-//W3C//DTD SVG 1.1//EN" "http://www.w3.org/Graphics/SVG/1.1/DTD/svg11.dtd"><svg t="1720511421665" class="icon" viewBox="0 0 1024 1024" version="1.1" xmlns="http://www.w3.org/2000/svg" p-id="1910" xmlns:xlink="http://www.w3.org/1999/xlink" width="200" height="200"><path d="M714.069333 559.274667l26.282667 25.6c2.048 1.9456 2.048 7.850667 0 9.8304l-32.324267 31.505066-36.386133 35.464534-151.552 147.694933c-2.048 1.9456-2.048 7.850667 0 9.8304l103.082667 100.420267c2.013867 1.979733 8.055467 1.979733 10.103466 0l181.8624-177.220267c2.048-1.979733 2.048-7.850667 0-9.8304l-50.517333-49.2544c-2.013867-1.9456-8.0896-3.925333-10.103467 0l-24.234666 23.6544c-2.048 1.9456-2.048 7.850667 0 9.8304l14.1312 13.789867c2.048 1.979733 2.048 7.850667 0 9.8304l-109.124267 110.2848c-2.048 1.979733-8.0896 1.979733-10.103467 0l-30.344533-29.525334c-2.013867-1.979733-2.013867-7.8848 0-9.864533l115.234133-112.2304 36.352-35.464533 68.7104-66.935467c2.048-1.979733 2.048-7.8848 0-9.864533l-64.648533-63.010134c-2.048-1.9456-8.0896-3.925333-10.103467 0l-24.234666 23.620267c-4.096 3.959467-4.096 7.8848-2.048 11.844267zM728.2688 409.6l6.075733 5.905067c2.048 1.979733 2.048 7.850667 0 9.864533l-42.427733 41.335467-36.386133 35.464533-16.1792 15.735467c-2.048 1.979733-2.048 7.850667 0 9.864533l24.234666 23.620267c2.048 1.979733 8.123733 1.979733 10.1376 0l16.145067-15.7696 36.386133-35.4304 78.848-76.8c2.013867-1.979733 2.013867-7.850667 0-9.864534l-42.461866-41.335466c-2.048-1.979733-8.0896-3.925333-10.103467 0l-24.234667 25.6a12.288 12.288 0 0 0 0 11.810133z m-131.345067 118.1696l-24.234666 23.620267c-2.048 1.979733-2.048 7.850667 0 9.8304l12.0832 11.810133 36.386133 35.464533 32.3584 31.505067c2.013867 1.979733 8.055467 1.979733 10.103467 0l24.234666-23.620267c2.048-1.979733 2.048-7.8848 0-9.864533l-32.324266-31.505067-36.386134-35.4304-12.117333-11.810133c-2.048-1.979733-8.0896-1.979733-10.103467 0z m-48.503466-57.105067L512 506.094933l-42.461867 41.335467c-2.013867 1.979733-8.055467 1.979733-10.103466 0l-30.3104-29.525333c-2.013867-1.979733-2.013867-7.850667 0-9.8304l36.386133-35.464534c2.048-1.9456 8.0896-1.9456 10.103467 0l14.165333 13.789867c2.013867 1.979733 8.055467 1.979733 10.103467 0l24.234666-23.620267c2.048-1.979733 2.048-7.8848 0-9.864533l-50.517333-49.220267c-2.048-1.979733-8.0896-1.979733-10.103467 0L356.352 508.074667c-2.048 1.9456-2.048 7.850667 0 9.8304l103.082667 100.420266c2.013867 1.979733 8.055467 1.979733 10.069333 0l78.848-76.8 36.352-35.4304 16.1792-15.7696c2.048-1.9456 2.048-7.850667 0-9.8304l-24.234667-23.620266c-2.048-1.979733-8.0896-1.979733-10.103466 0l-18.193067 13.789866z m-24.234667-259.959466l123.255467 120.149333c2.048 1.9456 8.0896 1.9456 10.103466 0l24.234667-23.6544c2.048-1.979733 2.048-7.850667 0-9.8304l-88.917333-86.664533c-2.013867-1.979733-2.013867-7.850667 0-9.8304l26.282666-25.6c2.048-1.979733 8.0896-1.979733 10.103467 0l105.096533 102.4c2.048 1.9456 2.048 7.850667 0 9.8304l-28.296533 31.505066-36.386133 35.464534-24.234667 23.620266c-2.048 1.979733-2.048 7.850667 0 9.8304l24.234667 23.6544c2.048 1.9456 8.0896 1.9456 10.103466 0l26.282667-25.6 36.386133-35.464533 68.7104-63.010133c2.048-1.979733 2.048-7.850667 0-9.8304l-175.8208-171.349334c-2.048-1.9456-8.0896-1.9456-10.103466 0l-101.034667 94.549334c-2.048 1.9456-2.048 7.850667 0 9.8304z m98.986667 189.064533l-149.538134-145.749333c-4.061867-3.925333-8.0896-1.9456-10.103466 0l-256.682667 252.074666c-2.048 3.925333-2.048 7.850667 0 9.8304l248.593067 242.244267c2.048 1.9456 8.0896 1.9456 10.103466 0l131.3792-128c2.013867-1.979733 2.013867-7.8848 0-9.864533l-24.234666-23.620267c-2.048-1.979733-8.123733-1.979733-10.1376 0l-94.993067 92.535467c-2.013867 1.979733-8.0896 1.979733-10.103467 0L281.6 517.905067c-2.048-1.979733-4.061867-7.850667 0-9.8304l183.9104-183.159467c2.048-3.925333 8.0896-3.925333 10.103467 0l113.186133 110.2848 36.386133 35.464533 12.117334 11.810134c2.048 1.9456 8.0896 1.9456 10.103466 0l24.234667-23.6544c4.061867-3.925333 2.048-7.850667 0-9.8304l-12.117333-11.810134-36.386134-37.410133z" fill="#FFFFFF" p-id="1911"></path></svg>