<?xml version="1.0" standalone="no"?><!DOCTYPE svg PUBLIC "-//W3C//DTD SVG 1.1//EN" "http://www.w3.org/Graphics/SVG/1.1/DTD/svg11.dtd"><svg t="1720511417401" class="icon" viewBox="0 0 1024 1024" version="1.1" xmlns="http://www.w3.org/2000/svg" p-id="1761" xmlns:xlink="http://www.w3.org/1999/xlink" width="200" height="200"><path d="M309.930667 559.274667l-26.282667 25.6c-2.048 1.9456-2.048 7.850667 0 9.8304l32.324267 31.505066 36.386133 35.464534 151.552 147.694933c2.048 1.9456 2.048 7.850667 0 9.8304l-103.082667 100.420267c-2.013867 1.979733-8.055467 1.979733-10.069333 0l-181.930667-177.220267c-2.013867-1.979733-2.013867-7.850667 0-9.8304l50.517334-49.2544c2.048-1.9456 8.123733-3.925333 10.1376 0l24.234666 23.6544c2.048 1.9456 2.048 7.850667 0 9.8304l-14.1312 13.789867c-2.048 1.979733-2.048 7.850667 0 9.8304l109.124267 110.2848c2.048 1.979733 8.0896 1.979733 10.103467 0l30.344533-29.525334c2.013867-1.979733 2.013867-7.8848 0-9.864533l-115.2-112.2304-36.386133-35.464533-68.7104-66.935467c-2.048-1.979733-2.048-7.8848 0-9.864533l64.648533-63.010134c2.048-1.9456 8.0896-3.925333 10.103467 0l24.234666 23.620267c4.096 3.959467 4.096 7.8848 2.048 11.844267zM295.7312 409.6l-6.075733 5.905067c-2.048 1.979733-2.048 7.850667 0 9.864533l42.427733 41.335467 36.386133 35.464533 16.1792 15.735467c2.048 1.979733 2.048 7.850667 0 9.864533l-24.234666 23.620267c-2.048 1.979733-8.0896 1.979733-10.1376 0l-16.145067-15.7696-36.386133-35.4304-78.848-76.8c-2.013867-1.979733-2.013867-7.850667 0-9.864534l42.461866-41.335466c2.048-1.979733 8.0896-3.925333 10.103467 0l24.234667 25.6a12.288 12.288 0 0 1 0 11.810133z m131.345067 118.1696l24.234666 23.620267c2.048 1.979733 2.048 7.850667 0 9.8304l-12.0832 11.810133-36.386133 35.464533-32.3584 31.505067c-2.013867 1.979733-8.055467 1.979733-10.103467 0l-24.234666-23.620267c-2.048-1.979733-2.048-7.8848 0-9.864533l32.324266-31.505067 36.386134-35.4304 12.117333-11.810133c2.048-1.979733 8.0896-1.979733 10.103467 0z m48.503466-57.105067L512 506.094933l42.461867 41.335467c2.013867 1.979733 8.055467 1.979733 10.103466 0l30.3104-29.525333c2.013867-1.979733 2.013867-7.850667 0-9.8304l-36.386133-35.464534c-2.048-1.9456-8.0896-1.9456-10.103467 0l-14.165333 13.789867c-2.013867 1.979733-8.055467 1.979733-10.103467 0l-24.234666-23.620267c-2.048-1.979733-2.048-7.8848 0-9.864533l50.517333-49.220267c2.048-1.979733 8.0896-1.979733 10.103467 0l107.1104 104.379734c2.048 1.9456 2.048 7.850667 0 9.8304l-103.082667 100.420266c-2.013867 1.979733-8.055467 1.979733-10.069333 0l-78.848-76.8-36.352-35.4304-16.1792-15.7696c-2.048-1.9456-2.048-7.850667 0-9.8304l24.234666-23.620266c2.048-1.979733 8.0896-1.979733 10.103467 0l18.193067 13.789866z m24.234667-259.959466l-123.255467 120.149333c-2.048 1.9456-8.0896 1.9456-10.103466 0L342.254933 307.2c-2.048-1.979733-2.048-7.850667 0-9.8304l88.917334-86.664533c2.013867-1.979733 2.013867-7.850667 0-9.8304l-26.282667-25.6c-2.048-1.979733-8.0896-1.979733-10.103467 0l-105.096533 102.4c-2.048 1.9456-2.048 7.850667 0 9.8304l28.296533 31.505066 36.386134 35.464534 24.234666 23.620266c2.048 1.979733 2.048 7.850667 0 9.8304l-24.234666 23.6544c-2.048 1.9456-8.0896 1.9456-10.103467 0l-26.282667-25.6-36.386133-35.464533-68.7104-63.010133c-2.048-1.979733-2.048-7.850667 0-9.8304l175.8208-171.349334c2.048-1.9456 8.0896-1.9456 10.103467 0l101.034666 94.549334c2.048 1.9456 2.048 7.850667 0 9.8304z m-98.986667 189.064533l149.538134-145.749333c4.061867-3.925333 8.0896-1.9456 10.103466 0l256.682667 252.074666c2.048 3.925333 2.048 7.850667 0 9.8304l-248.593067 242.244267c-2.048 1.9456-8.0896 1.9456-10.103466 0l-131.3792-128c-2.013867-1.979733-2.013867-7.8848 0-9.864533l24.234666-23.620267c2.048-1.979733 8.123733-1.979733 10.1376 0l94.993067 92.535467c2.013867 1.979733 8.0896 1.979733 10.103467 0l175.8208-171.3152c2.048-1.979733 4.061867-7.850667 0-9.8304l-183.9104-183.159467c-2.048-3.925333-8.0896-3.925333-10.103467 0L435.2 435.2l-36.386133 35.464533-12.117334 11.810134c-2.048 1.9456-8.0896 1.9456-10.103466 0l-24.234667-23.6544c-4.061867-3.925333-2.048-7.850667 0-9.8304l12.117333-11.810134 36.386134-37.410133z" fill="#FFFFFF" p-id="1762"></path></svg>