<?xml version="1.0" standalone="no"?><!DOCTYPE svg PUBLIC "-//W3C//DTD SVG 1.1//EN" "http://www.w3.org/Graphics/SVG/1.1/DTD/svg11.dtd"><svg t="1722059800167" class="icon" viewBox="0 0 1024 1024" version="1.1" xmlns="http://www.w3.org/2000/svg" p-id="2601" data-spm-anchor-id="a313x.search_index.0.i0.4e6d3a81XVNtpU" xmlns:xlink="http://www.w3.org/1999/xlink" width="200" height="200"><path d="M716.1 613l-0.2 0.1c69-103.2 76.2-246.1 6.8-367.6-95.4-167-299.4-230.2-455.4-141.1-156.1 89.2-205.2 296.9-109.8 464 95.4 167.1 299.3 230.3 455.4 141.1 0 0 189.4 250.5 199.8 250.5 10.4 0 102-117.1 102.5-125.3 0.6-8.2-199.1-221.7-199.1-221.7z m-139.6 14.8c-117.4 67.1-270.9 19.5-342.6-106.2-71.8-125.7-34.8-282 82.6-349.1 117.4-67.1 270.9-19.5 342.7 106.2 71.7 125.8 34.7 282.1-82.7 349.1z" fill="#1D1D1B" p-id="2602"></path><path d="M508.9 342.1s10-81 5.8-89.9c-4.2-8.9-81.9 2-94 8.7-12.1 6.8-20.5 90.9-20.5 90.9s-79.3 9.1-85.2 17.3c-5.9 8.1-11.9 72.2-6.2 81.6 5.7 9.5 79.9 8.8 79.9 8.8s-0.5 68.4 6.4 78.2c6.9 9.9 80.1-3.5 87.2-6.8 7.1-3.3 20.7-80.3 20.7-80.3s61.7-1.9 74.4-8.9c12.7-7 29.3-82.1 21.5-91.5-7.6-9.6-90-8.1-90-8.1z" fill="#1D1D1B" p-id="2603"></path></svg>