<?xml version="1.0" standalone="no"?><!DOCTYPE svg PUBLIC "-//W3C//DTD SVG 1.1//EN" "http://www.w3.org/Graphics/SVG/1.1/DTD/svg11.dtd"><svg t="1724489041395" class="icon" viewBox="0 0 1024 1024" version="1.1" xmlns="http://www.w3.org/2000/svg" p-id="5504" xmlns:xlink="http://www.w3.org/1999/xlink" width="200" height="200"><path d="M512.005 1017.156c-278.55 0-505.16-226.61-505.16-505.156S233.455 6.844 512.005 6.844c278.541 0 505.151 226.61 505.151 505.156s-226.61 505.156-505.15 505.156z m0-965.209C258.333 51.947 51.948 258.327 51.948 512s206.385 460.052 460.057 460.052 460.048-206.38 460.048-460.052S765.678 51.947 512.005 51.947z" fill="#a61b29" p-id="5505"></path><path d="M597.401 404.445c0-21.609-8.197-39.25-24.579-52.917-16.387-13.666-37.372-20.5-62.952-20.5-27.065 0-47.783 8.3-62.157 24.895-14.38 16.601-22.31 41.387-23.786 74.37H368.43c0-47.78 12.527-84.726 37.581-110.84 25.054-26.109 60.518-39.164 106.4-39.164 43.338 0 78.277 10.836 104.812 32.506 26.53 21.675 39.801 50.266 39.801 85.785 0 35.311-13.32 63.852-39.96 85.626-5.073 4.232-10.573 8.037-16.49 11.417 10.99 4.866 20.718 10.68 29.177 17.442 28.543 22.413 42.813 52.644 42.813 90.701 0 42.709-14.801 77.648-44.398 104.813-29.604 27.17-67.66 40.752-114.169 40.752-51.168 0-89.749-12.318-115.754-36.946-26.005-24.627-40.172-62.316-42.496-113.058h59.622c3.39 35.519 12.81 60.945 28.27 76.271 15.46 15.331 39.494 22.993 72.108 22.993 28.162 0 51.242-8.088 69.244-24.262 17.998-16.173 27.002-36.945 27.002-62.316 0-26.639-8.672-47.777-26.005-63.427-14.801-13.528-33.83-21.138-57.084-22.833-10.783-0.63-20.986-0.946-30.603-0.946-9.623 0-16.015 0.421-19.187 1.263v-49.79c4.648 1.05 11.838 1.575 21.565 1.575 9.723 0 19.345-0.628 28.86-1.893 18.393-2.328 33.299-8.37 44.715-18.115 15.427-12.714 23.148-30.513 23.148-53.402z" fill="#a61b29" p-id="5506"></path></svg>