<?xml version="1.0" standalone="no"?><!DOCTYPE svg PUBLIC "-//W3C//DTD SVG 1.1//EN" "http://www.w3.org/Graphics/SVG/1.1/DTD/svg11.dtd"><svg t="1722157849411" class="icon" viewBox="0 0 1024 1024" version="1.1" xmlns="http://www.w3.org/2000/svg" p-id="3946" xmlns:xlink="http://www.w3.org/1999/xlink" width="200" height="200"><path d="M510.848 998.9632C243.28704 998.9632 25.6 781.2864 25.6 513.70496 25.6 246.144 243.29216 28.46208 510.848 28.46208c267.5712 0 485.25312 217.68704 485.25312 485.25312 0.00512 267.5712-217.6768 485.248-485.25312 485.248z m0-913.41824c-236.08832 0-428.16 192.07168-428.16 428.16 0 236.09856 192.07168 428.17536 428.16 428.17536 236.09344 0 428.17536-192.08704 428.17536-428.17536 0.00512-236.0832-192.0768-428.16-428.17536-428.16z" fill="#515151" p-id="3947"></path><path d="M387.09248 725.1456v-48.21504c15.97952-37.36576 48.31744-78.05952 97.00352-122.09152l31.49824-28.16512c22.75328-20.8128 38.51776-39.62368 47.3088-56.448 8.79104-16.8192 13.184-34.33472 13.184-52.54144 0-23.22944-7.05024-41.3952-21.15072-54.5024-14.10048-13.10208-33.03424-19.64544-56.77568-19.64544-10.2144 0-19.9936 0.9728-29.36832 2.92864-9.37472 1.95584-19.38944 5.06368-30.05952 9.33376-10.67008 4.28032-24.448 11.25376-41.32352 20.90496v-48.49664c36.608-17.28512 73.03168-25.92768 109.26592-25.92768 39.5776 0 70.80448 10.87488 93.66016 32.61952 22.87104 21.73952 34.28864 48.87552 34.28864 81.39264 0 21.18144-4.70016 41.1648-14.06976 59.9296-9.39008 18.77504-32.58368 43.9552-69.55008 75.54048l-21.18656 18.10944c-15.44192 13.01504-30.9504 28.85632-46.55616 47.53408-15.616 18.67776-25.55392 38.50752-29.83424 59.51488h179.51232v48.22528H387.09248z" fill="#000000" p-id="3948"></path></svg>