<?xml version="1.0" standalone="no"?><!DOCTYPE svg PUBLIC "-//W3C//DTD SVG 1.1//EN" "http://www.w3.org/Graphics/SVG/1.1/DTD/svg11.dtd"><svg t="1724521692325" class="icon" viewBox="0 0 1024 1024" version="1.1" xmlns="http://www.w3.org/2000/svg" p-id="5239" xmlns:xlink="http://www.w3.org/1999/xlink" width="200" height="200"><path d="M512.8 903c-52.6 0-103.6-10.3-151.6-30.6-46.4-19.6-88-47.7-123.8-83.5s-63.8-77.4-83.5-123.8c-20.3-48-30.6-99.1-30.6-151.6s10.3-103.6 30.6-151.6c19.6-46.4 47.7-88 83.5-123.8s77.4-63.8 123.8-83.5c48-20.3 99.1-30.6 151.6-30.6s103.6 10.3 151.6 30.6c46.4 19.6 88 47.7 123.8 83.5s63.8 77.4 83.5 123.8c20.3 48 30.6 99.1 30.6 151.6 0 52.6-10.3 103.6-30.6 151.6-19.6 46.4-47.7 88-83.5 123.8s-77.4 63.8-123.8 83.5c-48 20.3-99 30.6-151.6 30.6z m0-719c-181.7 0-329.5 147.8-329.5 329.5S331.1 843 512.8 843s329.5-147.8 329.5-329.5S694.5 184 512.8 184zM638 535.9H389.9c-16.6 0-30-13.4-30-30s13.4-30 30-30H638c16.6 0 30 13.4 30 30 0 16.5-13.4 30-30 30z m-1 102H388.9c-16.6 0-30-13.4-30-30s13.4-30 30-30H637c16.6 0 30 13.4 30 30s-13.4 30-30 30zM513 759.3c-16.6 0-30-13.4-30-30V505.9c0-16.6 13.4-30 30-30s30 13.4 30 30v223.5c0 16.5-13.4 29.9-30 29.9z m1.1-247.4c-7.9 0-15.8-3.1-21.7-9.3L367.2 371.4c-11.4-12-11-31 1-42.4 12-11.4 31-11 42.4 1l125.1 131.2c11.4 12 11 31-1 42.4-5.7 5.5-13.2 8.3-20.6 8.3z m-1.6-0.9c-7.4 0-14.9-2.8-20.7-8.3-12-11.4-12.4-30.4-1-42.4l125.1-131.2c11.4-12 30.4-12.4 42.4-1s12.4 30.4 1 42.4L534.2 501.7c-5.9 6.2-13.8 9.3-21.7 9.3z" p-id="5240" data-spm-anchor-id="a313x.search_index.0.i1.40363a811HDYAW" fill="#a61b29" class="selected"></path></svg>