<?xml version="1.0" standalone="no"?><!DOCTYPE svg PUBLIC "-//W3C//DTD SVG 1.1//EN" "http://www.w3.org/Graphics/SVG/1.1/DTD/svg11.dtd"><svg t="1725354646955" class="icon" viewBox="0 0 1024 1024" version="1.1" xmlns="http://www.w3.org/2000/svg" p-id="2513" xmlns:xlink="http://www.w3.org/1999/xlink" width="200" height="200"><path d="M925.7 337.2c-22.6-53.5-55-101.5-96.2-142.7-41.2-41.2-89.2-73.6-142.7-96.2C631.4 74.9 572.6 63 512 63S392.6 74.9 337.2 98.3c-53.5 22.6-101.5 55-142.7 96.2-41.2 41.2-73.6 89.2-96.2 142.7C74.9 392.6 63 451.4 63 512s11.9 119.4 35.3 174.8c22.6 53.5 55 101.5 96.2 142.7 41.2 41.2 89.2 73.6 142.7 96.2C392.6 949.1 451.4 961 512 961s119.4-11.9 174.8-35.3c53.5-22.6 101.5-55 142.7-96.2s73.6-89.2 96.2-142.7C949.1 631.4 961 572.6 961 512s-11.9-119.4-35.3-174.8zM672.4 514.9c-4.9 4.9-11.3 7.3-17.7 7.3s-12.8-2.4-17.7-7.3l-103-103v331.5c0 13.8-11.2 25-25 25s-25-11.2-25-25v-325L386.9 515c-9.8 9.7-25.6 9.7-35.4-0.1-9.7-9.8-9.7-25.6 0.1-35.4l143.3-142.2c9.8-9.7 25.6-9.7 35.3 0.1l142.2 142.2c9.8 9.7 9.8 25.5 0 35.3z m-0.9-209.3h-319c-13.8 0-25-11.2-25-25s11.2-25 25-25h319c13.8 0 25 11.2 25 25s-11.2 25-25 25z" fill="#4682B4" p-id="2514"></path></svg>