<?xml version="1.0" standalone="no"?><!DOCTYPE svg PUBLIC "-//W3C//DTD SVG 1.1//EN" "http://www.w3.org/Graphics/SVG/1.1/DTD/svg11.dtd"><svg t="1723627704576" class="icon" viewBox="0 0 1024 1024" version="1.1" xmlns="http://www.w3.org/2000/svg" p-id="14957" xmlns:xlink="http://www.w3.org/1999/xlink" width="200" height="200"><path d="M1002.666667 149.333333H21.333333a21.333333 21.333333 0 0 0 0 42.666667H42.666667V256a21.333333 21.333333 0 0 0 21.333333 21.333333H85.333333V853.333333a21.333333 21.333333 0 0 0 21.333334 21.333334h85.333333A21.333333 21.333333 0 0 0 213.333333 853.333333v-192h597.333334V853.333333a21.333333 21.333333 0 0 0 21.333333 21.333334h85.333333a21.333333 21.333333 0 0 0 21.333334-21.333334V277.333333h21.333333A21.333333 21.333333 0 0 0 981.333333 256V192h21.333334a21.333333 21.333333 0 0 0 0-42.666667zM213.333333 618.666667v-256h597.333334v256H213.333333z m682.666667 213.333333h-42.666667V341.333333a21.333333 21.333333 0 0 0-21.333333-21.333333h-640A21.333333 21.333333 0 0 0 170.666667 341.333333v490.666667H128v-554.666667h768v554.666667z m42.666667-597.333333H85.333333v-42.666667h853.333334v42.666667z" p-id="14958"></path></svg>