<?xml version="1.0" standalone="no"?><!DOCTYPE svg PUBLIC "-//W3C//DTD SVG 1.1//EN" "http://www.w3.org/Graphics/SVG/1.1/DTD/svg11.dtd"><svg t="1723627883392" class="icon" viewBox="0 0 1024 1024" version="1.1" xmlns="http://www.w3.org/2000/svg" p-id="28138" xmlns:xlink="http://www.w3.org/1999/xlink" width="200" height="200"><path d="M887.526 662.733a292.114 292.114 0 0 1-1.868 6.016l-0.461-0.627c-15.296 34.688-35.29 65.536-54.17 93.248-43.213 63.41-90.317 119.692-131.097 173.619 39.04 51.405-43.021 71.654-92.16 79.705-77.108 12.75-166.272 10.983-237.35-7.078-42.356-10.714-90.56-38.195-49.64-77.978-38.425-51.468-94.04-98.432-134.655-159.45-24.397-36.658-49.754-80.255-64.192-129.868a216.166 216.166 0 0 1-9.383-43.61 276.774 276.774 0 0 1-2.585-42.56c0.704-40.115 14.707-82.739 30.105-113.408 24.96-49.766 70.03-85.824 119.552-112.473 0.295 0.512 1.114 0.064 2.484-1.331a517.005 517.005 0 0 1 32.09-15.565 331.84 331.84 0 0 1-16.346-32.794c-23.296-53.837-38.247-115.52-59.828-163.814-5.056-11.469-18.214-24.589-17.702-37.235 1.434-37.824 78.938-54.528 124.02-62.004 122.188-20.262 236.991-18.393 357.913 0 45.056 6.887 127.744 19.968 131.046 60.25 1.229 14.528-14.105 42.278-19.494 58.483a1290.266 1290.266 0 0 1-67.367 164.762c46.644 22.822 90.048 48.806 124.058 86.797 31.898 35.763 56.986 93.081 60.237 150.604 2.65 47.104-7.437 88.91-23.207 126.31z m-53.952-236.467c-3.712-5.312-7.628-10.279-11.699-14.848-26.445-29.543-60.89-52.736-112.32-77.901l-34.509-16.896 16.896-34.483a1251.648 1251.648 0 0 0 65.421-160c1.28-3.84 2.842-7.86 4.903-12.826 1.164-2.816 6.336-14.886 5.081-11.93a551.53 551.53 0 0 0 2.304-5.452c1.959-4.762 3.367-8.512 4.301-11.482-4.544-3.52-12.403-7.373-22.976-11.008-19.008-6.515-39.424-10.598-74.496-15.949-121.805-18.534-231.962-18.97-345.856-0.09-28.544 4.737-52.314 10.343-70.694 17.524-7.706 3.008-13.812 6.08-17.997 8.921 4.096 6.31 3.98 6.132 5.35 8.384 2.317 3.79 4.224 7.296 5.799 10.868 9.241 20.672 16.524 40.832 28.659 77.414a17843.635 17843.635 0 0 1 6.643 20.045c15.475 46.438 25.907 72.78 39.078 95.629l21.3 36.94-38.95 17.332c-66.266 29.465-112.64 66.048-135.425 111.513a260.822 260.822 0 0 0-8.576 18.983c24.064-18.023 49.895-36.096 64.563-43.456 30.95 29.939 53.799 73.382 86.733 100.262 24.653-17.792 45.479-36.262 65.741-58.816 14.131-15.744 29.94-36.736 47.744-47.77 22.144 18.125 44.237 34.432 64.166 54.823 15.463 15.808 30.4 36.057 47.63 49.408 15.206-18.906 27.878-42.189 41.92-62.285 6.284-9.088 26.84-48.333 39.257-49.062 7.552-0.333 42.65 24.217 64.793 41.408 11.264 8.768 40.052 24.192 57.46 40.614 24.473-23.923 37.696-27.136 67.865-57.984 6.106-6.246 13.018-12.07 19.891-17.83z m24.935 206.118a650.304 650.304 0 0 0-18.24-22.733c-19.559 15.54-35.648 36.39-52.583 55.117-12.147 13.44-28.915 39.053-46.412 45.082-16.167-19.162-77.133-67.2-58.624-50.24 6.848 6.272-28.839-32.666-45.133-45.338-14.874 24.96-35.802 47.437-53.389 70.554-7.86 10.278-29.517 49.574-44.787 50.099-17.024 0.537-54.055-42.407-67.226-54.746-15.641-14.605-34.713-23.705-52.544-39.245-25.216 25.984-44.992 43.559-68.813 70.272-8.896 10.01-23.718 24.935-44.467 44.775l-41.753-53.888-49.408-63.744s-18.036 42.278-26.215 62.656a636.902 636.902 0 0 0 29.159 47.897c15.104 22.695 32.55 43.776 59.648 73.344 3.033 3.328 6.17 6.72 10.265 11.15l10.343 11.186c8.524 9.216 14.656 15.924 20.608 22.618 12.838 14.4 23.296 26.982 32.614 39.462l20.16 27.008-24.166 23.488c6.886 4.813 18.752 9.805 32.32 13.236 64.307 16.345 147.878 18.61 221.696 6.4 28.992-4.736 52.736-11.252 66.252-18.996 0.192-0.128-5.17-7.705-16.076-22.758l17.561-23.22c13.735-18.15 68.135-87.64 80.64-104.063a1575.731 1575.731 0 0 0 49.357-68.007c27.853-40.896 47.334-74.88 59.213-107.366z m10.06-39.654c3.124-5.786 4.48-32.333 2.714-66.765-2.65-21.197-11.213-52.403-19.635-68.48-15.258 11.61-21.837 12.057-37.965 25.011-37.21 29.888-43.392 34.06-67.865 57.984-17.408-16.41-46.183-31.846-57.472-40.614-22.144-17.19-48.743-36.288-56.295-35.968-12.416 0.742-32.973 40-39.257 49.075-14.042 20.096-28.468 48.192-43.674 67.072-17.229-13.325-44.314-38.272-59.776-54.08-19.93-20.39-33.242-32.103-55.398-50.227-17.792 11.033-34.56 28.928-48.692 44.672-20.262 22.54-48.038 51.84-72.69 69.644-32.935-26.88-60.711-74.47-91.649-104.41-26.777 13.44-49.152 35.342-71.757 54.836-1.152 28.71-5.158 65.434 18.176 113.485 5.952 14.733 7.552 15.936 13.39-2.189 2.88-8.973 35.686-55.936 35.686-55.936l49.408 63.744 41.766 53.888c20.736-19.84 35.571-34.778 44.454-44.774 23.821-26.714 43.597-44.288 68.813-70.272 17.843 15.539 36.915 24.627 52.544 39.232 13.184 12.339 50.202 55.296 67.239 54.758 15.27-0.538 36.928-39.808 44.774-50.1 17.6-23.116 38.528-45.606 53.402-70.553 16.294 12.672 63.001 56.768 56.166 50.496-18.522-16.973 31.424 25.907 47.59 45.069 17.498-6.016 34.266-31.629 46.4-45.069 16.935-18.726 33.024-39.59 52.596-55.117 10.086 6.413 14.54 8.346 27.008 25.588z" fill="" p-id="28139"></path></svg>