<?xml version="1.0" standalone="no"?><!DOCTYPE svg PUBLIC "-//W3C//DTD SVG 1.1//EN" "http://www.w3.org/Graphics/SVG/1.1/DTD/svg11.dtd"><svg t="1723629457899" class="icon" viewBox="0 0 1024 1024" version="1.1" xmlns="http://www.w3.org/2000/svg" p-id="6864" xmlns:xlink="http://www.w3.org/1999/xlink" width="200" height="200"><path d="M1020.288 625.408L692.992 93.312c-2.304-3.712-5.504-6.656-9.216-8.704V71.168c0-13.568-11.008-24.704-24.704-24.704H364.928c-13.568 0-24.704 11.008-24.704 24.704V84.48c-3.712 2.048-7.04 4.992-9.344 8.704L3.712 625.408C0.256 631.04-0.768 637.568 0.768 644.096c1.536 6.4 5.504 11.776 11.136 15.232l5.888 3.584c3.968 2.432 8.448 3.584 12.8 3.584 8.32 0 16.384-4.224 21.12-11.776l280.576-470.656L102.272 766.72c0 0.128-0.128 0.256-0.128 0.512-5.248 16-2.176 33.28 8.32 46.336 28.544 35.456 111.872 120.576 270.464 151.936 1.28 1.024 2.816 1.664 4.48 1.92 0.384 0 0.768 0.128 1.152 0.128 0.896 0 1.664-0.128 2.56-0.384 38.016 6.912 78.208 10.496 119.936 10.496h6.144c239.872 0 358.528-114.56 398.464-163.84 10.624-13.184 13.696-30.592 8.192-46.72 0-0.128-0.128-0.256-0.128-0.384L694.016 187.776l278.528 467.072c4.608 7.552 12.8 11.776 20.992 11.776 4.352 0 8.832-1.152 12.8-3.584l5.888-3.584c5.632-3.456 9.6-8.832 11.008-15.232 1.664-6.528 0.512-13.184-2.944-18.816zM639.744 947.328l-91.52-778.624h42.624l219.776 711.424c-41.984 27.008-98.176 52.864-170.88 67.2zM364.928 150.144c-3.456 0-6.144-2.816-6.144-6.144v-10.496h306.56v10.496c0 3.456-2.816 6.144-6.144 6.144H364.928z m13.696 795.904c-70.912-14.848-125.696-40.576-166.656-67.2L431.36 168.576h38.656l-91.392 777.472z m286.72-831.104H358.656v-12.288h306.56v12.288z m-300.416-49.92H659.2c3.456 0 6.144 2.816 6.144 6.144v12.928H358.656V71.168c0-3.328 2.816-6.144 6.272-6.144zM35.84 645.248c-1.792 2.944-5.632 3.84-8.448 2.048l-5.888-3.584c-1.408-0.896-2.432-2.176-2.816-3.84-0.384-1.664-0.128-3.2 0.768-4.608L340.224 113.536v21.12L35.84 645.248z m88.96 156.544c-6.528-8.064-8.448-18.688-5.248-28.672l238.976-605.44c2.048 0.512 4.096 0.896 6.272 0.896h47.232L196.096 867.84c-35.84-25.6-58.88-50.688-71.296-66.048z m384.128 157.184c-38.912 0-76.544-3.2-112.128-9.472l91.776-780.928h40.96l91.904 781.952c-32.256 5.248-67.712 8.32-106.368 8.32h-6.144z m390.272-157.056c-13.696 17.024-37.248 42.112-72.704 67.2l-216.32-700.544H659.2c2.432 0 4.736-0.384 7.04-1.024l238.208 605.44c3.2 10.112 1.28 20.864-5.248 28.928z m106.112-162.176c-0.384 1.664-1.408 2.944-2.816 3.84l-5.888 3.584c-2.944 1.792-6.656 0.896-8.448-1.92l-304.512-510.72V113.536l320.768 521.6c1.024 1.408 1.28 3.072 0.896 4.608z" fill="#060001" p-id="6865"></path></svg>