<?xml version="1.0" standalone="no"?><!DOCTYPE svg PUBLIC "-//W3C//DTD SVG 1.1//EN" "http://www.w3.org/Graphics/SVG/1.1/DTD/svg11.dtd"><svg t="1723627783871" class="icon" viewBox="0 0 1024 1024" version="1.1" xmlns="http://www.w3.org/2000/svg" p-id="21686" xmlns:xlink="http://www.w3.org/1999/xlink" width="200" height="200"><path d="M512 1024C229.6 1024 0 794.4 0 512S229.6 0 512 0s512 229.6 512 512-229.6 512-512 512z m0-975.2C256.6 48.8 48.8 256.6 48.8 512S256.6 975.2 512 975.2 975.2 767.4 975.2 512 767.4 48.8 512 48.8z" p-id="21687"></path><path d="M512 682.6c-94 0-170.6-76.6-170.6-170.6s76.6-170.6 170.6-170.6 170.6 76.6 170.6 170.6-76.6 170.6-170.6 170.6z m0-292.6c-67.2 0-122 54.6-122 122s54.8 122 122 122 122-54.6 122-122-54.8-122-122-122zM646.8 877.6l-9-22.6c47.4-18.8 89.8-46.8 126.2-83 39.2-39.2 68.6-85.4 87.2-137.2l22.8 8.2c-19.8 55.2-51.2 104.4-93 146.2-38.4 38.6-83.6 68.4-134.2 88.4zM169 386.2l-22.6-9c20-50.4 49.8-95.6 88.6-134.4 41.8-41.8 91-73 146.2-93l8.2 23c-51.8 18.6-98 48-137.2 87.2-36.6 36.2-64.4 78.8-83.2 126.2z" p-id="21688"></path></svg>