<svg width="57" height="57" xmlns="http://www.w3.org/2000/svg" xmlns:xlink="http://www.w3.org/1999/xlink" xml:space="preserve" overflow="hidden"><g transform="translate(-51 -192)"><path d="M100.281 211.037 100.281 201.5 88.3867 201.5 79.5 194.375 70.6133 201.5 58.7188 201.5 58.7188 211.037 55.75 213.417 55.75 246.625 103.25 246.625 103.25 213.417ZM96.7188 205.062 96.7188 218.434 93.3237 221.688 65.6549 221.688 62.2812 218.455 62.2812 205.062ZM59.3125 219.022 71.1875 230.303 59.3125 241.584ZM61.2244 243.062 72.9391 231.965 73.7763 231.188C76.9972 228.174 82.0028 228.174 85.2238 231.188L86.0609 231.983 97.7756 243.062ZM99.6875 241.632 87.8125 230.35 99.6875 219.069Z" fill="#FFFFFF"/><path d="M83.2739 217.033C83.2219 216.968 83.166 216.907 83.1064 216.849 82.6085 216.397 81.8727 216.324 81.2961 216.671 80.8633 216.863 80.7801 216.747 80.7481 216.704 80.4645 216.31 79.9157 216.221 79.5223 216.504 79.1288 216.788 79.0396 217.337 79.3231 217.73 79.9168 218.554 80.9208 218.757 82.005 218.276L82.005 218.276C82.2452 218.613 82.626 218.822 83.0393 218.843 83.0916 218.848 83.1421 218.85 83.1919 218.85 83.8835 218.794 84.5132 218.429 84.9067 217.858 84.9902 217.757 85.0796 217.661 85.1745 217.57 85.4906 217.307 85.8614 217.118 86.2598 217.015 86.2831 217.589 86.6091 218.107 87.116 218.376 87.7355 218.669 88.4635 218.616 89.0338 218.236 89.1499 218.161 89.261 218.079 89.3663 217.99 89.3812 217.978 89.3978 217.965 89.4144 217.95 89.4738 217.998 89.5391 218.044 89.6062 218.088 90.0408 218.318 90.5389 218.399 91.0241 218.319 91.2646 218.319 92.2751 218.319 92.2745 218.319L92.2745 218.319C92.7592 218.319 93.1521 217.926 93.1521 217.441 93.1521 216.956 92.7592 216.563 92.2745 216.563L91.6149 216.563C91.3533 216.556 91.0915 216.568 90.8317 216.6L90.8282 216.574C90.7215 216.588 90.6135 216.59 90.5063 216.58L90.4416 216.53C90.0735 216.195 89.5658 216.06 89.0802 216.168 88.7722 216.256 88.4889 216.415 88.2525 216.631 88.2046 216.674 88.154 216.714 88.1011 216.75 88.077 216.765 88.0513 216.778 88.0245 216.788 88.1069 216.434 88.0621 216.061 87.898 215.736 87.6047 215.237 87.0537 215.062 86.2527 215.217 85.427 215.359 84.6538 215.718 84.0113 216.255 83.8565 216.396 83.7117 216.548 83.5779 216.71 83.4831 216.823 83.3815 216.931 83.2739 217.033Z" fill="#FFFFFF"/><path d="M65.8438 208.328 72.9688 208.328 72.9688 210.109 65.8438 210.109Z" fill="#FFFFFF"/><path d="M65.8438 211.891 83.6562 211.891 83.6562 213.672 65.8438 213.672Z" fill="#FFFFFF"/><path d="M85.4375 211.891 93.1562 211.891 93.1562 213.672 85.4375 213.672Z" fill="#FFFFFF"/></g></svg>