<svg width="38" height="38" xmlns="http://www.w3.org/2000/svg" xmlns:xlink="http://www.w3.org/1999/xlink" xml:space="preserve" overflow="hidden"><g transform="translate(-1072 -17)"><path d="M1097.33 28.875C1097.33 32.3728 1094.5 35.2083 1091 35.2083 1087.5 35.2083 1084.67 32.3728 1084.67 28.875 1084.67 25.3772 1087.5 22.5417 1091 22.5417 1094.5 22.5417 1097.33 25.3772 1097.33 28.875Z"/><path d="M1103.67 49.4583 1103.67 43.125C1103.67 42.175 1103.19 41.225 1102.4 40.5917 1100.66 39.1667 1098.44 38.2167 1096.22 37.5833 1094.64 37.1083 1092.9 36.7917 1091 36.7917 1089.26 36.7917 1087.52 37.1083 1085.78 37.5833 1083.56 38.2167 1081.34 39.325 1079.6 40.5917 1078.81 41.225 1078.33 42.175 1078.33 43.125L1078.33 49.4583 1103.67 49.4583Z"/></g></svg>