<svg width="56" height="57" xmlns="http://www.w3.org/2000/svg" xmlns:xlink="http://www.w3.org/1999/xlink" xml:space="preserve" overflow="hidden"><g transform="translate(-50 -93)"><path d="M33.8333 11.3388C33.6778 11.4166 33.5247 11.4998 33.3742 11.5885 30.5146 13.2757 29.0103 16.567 29.6059 19.8333L33.8333 19.8333Z" transform="matrix(1 0 0 1.01786 50 93)"/><path d="M30.1362 21.5833C31.8872 25.5888 36.5537 27.4164 40.5592 25.6654 40.8458 25.5401 41.1247 25.398 41.3945 25.2397 41.4015 25.235 41.4085 25.2297 41.4155 25.2257L41.4155 21.5833Z" transform="matrix(1 0 0 1.01786 50 93)"/><path d="M30.4191 6.55842C30.5048 6.50825 30.5941 6.46508 30.6804 6.41667L20.4167 6.41667 20.4167 19.8333 23.7131 19.8333C23.1602 14.4777 25.7802 9.29133 30.4191 6.55842ZM22.1667 8.16667 24.5 8.16667 24.5 10.5 22.1667 10.5Z" transform="matrix(1 0 0 1.01786 50 93)"/><path d="M41.4167 31.8867 41.2475 31.5992C39.9953 31.9667 38.6967 32.1525 37.3917 32.151 33.9055 32.1438 30.551 30.8194 28 28.4433L28 35 41.4167 35Z" transform="matrix(1 0 0 1.01786 50 93)"/><path d="M45.7275 41.65 42.8499 36.75 35.5833 36.75 35.5833 50.1667 48.4167 50.1667 48.4167 43.7243C47.2859 43.4064 46.3221 42.663 45.7275 41.65ZM39.6667 40.8333 37.3333 40.8333 37.3333 38.5 39.6667 38.5Z" transform="matrix(1 0 0 1.01786 50 93)"/><path d="M20.4167 50.1667 33.8333 50.1667 33.8333 36.75 20.4167 36.75ZM22.1667 38.5 24.5 38.5 24.5 40.8333 22.1667 40.8333Z" transform="matrix(1 0 0 1.01786 50 93)"/><path d="M5.25 50.1667 18.6667 50.1667 18.6667 36.75 5.25 36.75ZM7 38.5 9.33333 38.5 9.33333 40.8333 7 40.8333Z" transform="matrix(1 0 0 1.01786 50 93)"/><path d="M26.25 26.467C25.9957 26.117 25.7512 25.7565 25.5302 25.3797 24.8345 24.1977 24.3203 22.918 24.0047 21.5833L12.8333 21.5833 12.8333 35 26.25 35ZM16.9167 25.6667 14.5833 25.6667 14.5833 23.3333 16.9167 23.3333Z" transform="matrix(1 0 0 1.01786 50 93)"/><path d="M47.7312 12.3352C44.3799 6.61768 37.0282 4.69961 31.3107 8.05093 25.5933 11.4023 23.6752 18.754 27.0265 24.4715 30.0678 29.6599 36.4801 31.7957 42.0251 29.4671L43.4986 31.9754C43.1024 32.8185 43.1478 33.8027 43.6199 34.6057L47.2366 40.7598C48.0437 42.0962 49.7813 42.5253 51.1177 41.7182 52.4313 40.925 52.8721 39.2286 52.1109 37.8962L48.4943 31.7421C48.0229 30.9397 47.1866 30.4211 46.2583 30.3555L44.7848 27.8472C49.5056 24.1394 50.7638 17.5156 47.7312 12.3352ZM29.05 23.3112C26.3454 18.7084 27.8841 12.7845 32.4869 10.0799 37.0897 7.37526 43.0136 8.91403 45.7182 13.5168 48.4228 18.1196 46.8841 24.0435 42.2813 26.7481 42.2812 26.7481 42.2812 26.7482 42.2812 26.7482 37.6774 29.4461 31.7586 27.9086 29.05 23.3112Z" transform="matrix(1 0 0 1.01786 50 93)"/></g></svg>