<svg width="57" height="56" xmlns="http://www.w3.org/2000/svg" xmlns:xlink="http://www.w3.org/1999/xlink" xml:space="preserve" overflow="hidden"><g transform="translate(-52 -368)"><path d="M52.85 46.6667 30.0417 7C29.1667 5.425 26.8917 5.425 26.0167 7L3.15 46.6667C2.275 48.2417 3.38333 50.1667 5.19167 50.1667L28 50.1667 50.8083 50.1667C52.6167 50.1667 53.725 48.2417 52.85 46.6667ZM26.25 16.3333 29.75 16.3333 29.75 36.75 26.25 36.75 26.25 16.3333ZM28 44.9167C26.3667 44.9167 25.0833 43.6333 25.0833 42 25.0833 40.3667 26.3667 39.0833 28 39.0833 29.6333 39.0833 30.9167 40.3667 30.9167 42 30.9167 43.6333 29.6333 44.9167 28 44.9167Z" fill="#FFFFFF" transform="matrix(1.01786 0 0 1 52 368)"/></g></svg>