<?xml version="1.0" standalone="no"?><!DOCTYPE svg PUBLIC "-//W3C//DTD SVG 1.1//EN" "http://www.w3.org/Graphics/SVG/1.1/DTD/svg11.dtd"><svg t="1723889566048" class="icon" viewBox="0 0 1025 1024" version="1.1" xmlns="http://www.w3.org/2000/svg" p-id="7945" width="200.1953125" height="200" xmlns:xlink="http://www.w3.org/1999/xlink"><path d="M106.99032108 512.05641383l24.08604825-24.08604827 99.98746109 99.98746106L206.97778214 612.04387492zM185.72538646 433.32134844l24.08604827-24.08604825 99.98746109 99.98746106L285.71284754 533.30880953z" fill="#ffffff" p-id="7946"></path><path d="M284.50652121 486.75594303l24.08604827 24.08604827L208.60510841 610.82945238l-24.08604829-24.08604827zM207.12958525 411.80785213l24.08604825 24.08604826-99.98746108 99.98746109-24.08604828-24.08604826zM301.75132197 397.8925933l24.08604825 24.08604827-75.69900884 75.69900886-24.08604828-24.08604829z" fill="#ffffff" p-id="7947"></path><path d="M512.20266267 106.84407226l-114.15572477 114.15572474 100.3922686 100.3922686L363.63829793 456.19297418 287.33207758 379.88675386l57.48266969-57.48266968 39.46873487 39.46873486 24.08604828-24.08604828L344.81474727 274.23198764 239.15998105 379.88675386l123.87110538 123.87110541 0.80961504-0.80961501 0.60721146 0.60721145 182.16339013-182.16339011L446.21903444 220.99979698 536.28871093 130.93012052zM512.00025911 917.06635186l-114.15572476-114.15572478 100.39226859-100.39226857L363.43589434 567.71744992 287.12967403 644.02367023l57.48266968 57.48266968 39.46873447-39.46873446 24.08604828 24.08604828L344.61234371 749.67843648 238.95757749 644.02367024 362.8286829 520.15256484l0.80961503 0.80961501 0.60721145-0.60721146 182.1633901 182.16339012L446.0166309 802.91062708l90.06967647 90.06967649z" fill="#ffffff" p-id="7948"></path><path d="M223.5748909 549.70351469l24.08604827-24.08604827 75.69900887 75.69900886L299.27389975 625.40252357z" fill="#ffffff" p-id="7949"></path></svg>