<?xml version="1.0" standalone="no"?><!DOCTYPE svg PUBLIC "-//W3C//DTD SVG 1.1//EN" "http://www.w3.org/Graphics/SVG/1.1/DTD/svg11.dtd"><svg t="1724504459638" class="icon" viewBox="0 0 1893 1024" version="1.1" xmlns="http://www.w3.org/2000/svg" p-id="4812" width="369.7265625" height="200" xmlns:xlink="http://www.w3.org/1999/xlink"><path d="M532.000411 613.509535m-52.586532 0a52.586532 52.586532 0 1 0 105.173063 0 52.586532 52.586532 0 1 0-105.173063 0Z" fill="#f6c1ba" p-id="4813"></path><path d="M1355.856072 815.091239m-52.586532 0a52.586532 52.586532 0 1 0 105.173063 0 52.586532 52.586532 0 1 0-105.173063 0Z" fill="#f6c1ba" p-id="4814"></path><path d="M0 836.318669l737.491047-737.491047 12.392893 12.401657-737.491047 737.482283z" fill="#f6c1ba" p-id="4815"></path><path d="M534.629737 853.847513l737.491048-737.491048 12.392892 12.401657-737.491047 737.482283z" fill="#f6c1ba" p-id="4816"></path><path d="M744.975864 1011.607107l570.160703-570.160703 12.392893 12.392892-570.160704 570.160704z" fill="#f6c1ba" p-id="4817"></path><path d="M1323.427711 643.501387l557.767811-557.767812 12.392893 12.401657-557.767812 557.767812z" fill="#f6c1ba" p-id="4818"></path><path d="M1284.513677 129.012291l120.098874 121.930638a8.764422 8.764422 0 0 1-12.392893 12.392892l-123.946455-123.946455a8.764422 8.764422 0 0 1 0-12.392892c3.418125-3.418125 12.813585-1.411072 16.240474 2.015817z" fill="#f6c1ba" p-id="4819"></path><path d="M618.400082 190.161663l-61.70153 190.187955-114.489644-108.135437z" fill="#f6c1ba" p-id="4820"></path><path d="M618.391318 190.161663l-8.895889 162.834194-52.98093 27.432641z" fill="#f6c1ba" p-id="4821"></path><path d="M720.488069 27.05577l232.204594-2.971139-221.073778 219.671472z" fill="#f6c1ba" p-id="4822"></path><path d="M1304.10216 365.301106l354.853915-363.933856 197.699066-1.36725-539.564107 540.563251z" fill="#f6c1ba" p-id="4823"></path><path d="M1127.981102 271.69708m-52.586532 0a52.586532 52.586532 0 1 0 105.173063 0 52.586532 52.586532 0 1 0-105.173063 0Z" fill="#f6c1ba" p-id="4824"></path></svg>