<?xml version="1.0" standalone="no"?><!DOCTYPE svg PUBLIC "-//W3C//DTD SVG 1.1//EN" "http://www.w3.org/Graphics/SVG/1.1/DTD/svg11.dtd"><svg t="1724504877931" class="icon" viewBox="0 0 1024 1024" version="1.1" xmlns="http://www.w3.org/2000/svg" p-id="10023" xmlns:xlink="http://www.w3.org/1999/xlink" width="200" height="200"><path d="M585.561534 832.769319c-0.146537-105.506583-85.724098-191.084144-191.230681-191.230681H8.792215c-4.249571 0.146537-7.766457 3.663423-7.766457 7.912993v366.781912c0 4.249571 3.516886 7.766457 7.766457 7.766457h385.538638c105.65312-0.146537 191.230681-85.577562 191.230681-191.230681z m-15.532914 0c0 57.58901-28.281626 111.514596-75.759587 144.19233-25.790498-61.39897-86.017172-101.110475-152.544935-100.817402H16.558672v-86.749857h325.165426c66.527762 0.293074 126.754436-39.418432 152.544935-100.817401 47.477962 32.82427 75.759588 86.60332 75.759587 144.19233zM394.47739 657.218088c30.333143 0 60.226674 7.912994 86.60332 23.006297a148.83755 148.83755 0 0 1-139.210075 93.490555H16.558672v-116.496852h377.918718zM16.558672 1008.467086v-116.643388h325.165426c61.252433-0.293074 116.496852 36.780767 139.356612 93.637092-26.376646 15.093303-56.270177 23.006297-86.60332 23.006296H16.558672zM390.960504 397.115054V7.766457c0-4.249571-3.516886-7.766457-7.766457-7.766457H8.792215C4.542645 0 1.025758 3.516886 1.025758 7.766457V397.115054c0.146537 97.007441 78.836863 175.697768 175.844305 175.844305h38.246136c97.153978 0 175.697768-78.690326 175.844305-175.844305z m-15.532914 0c0 26.230109-6.447624 52.020607-18.756726 75.173441a146.507613 146.507613 0 0 1-100.524327-138.47739V15.532914h119.42759V397.115054zM16.558672 15.532914h119.42759v318.278191c-0.293074 63.010876-40.737264 118.694906-100.524327 138.47739-12.309101-23.152833-18.903263-48.943331-18.903263-75.173441V15.532914zM176.870063 557.426445c-53.632513 0-103.74814-26.962793-133.348598-71.656554 64.476245-22.713223 107.851173-83.526045 108.144248-151.958786V15.532914h88.801373v318.278191c0.293074 68.432742 43.521465 129.245564 108.144248 151.812249a160.047624 160.047624 0 0 1-133.348598 71.656554l-38.392673 0.146537zM1022.974242 242.811677v-0.439611-101.989696-0.439611V7.766457c0-4.249571-3.516886-7.766457-7.766457-7.766457H629.669147c-105.65312 0-191.230681 85.577562-191.230681 191.230681S524.016027 382.461362 629.669147 382.461362h385.538638c4.249571 0 7.766457-3.516886 7.766457-7.766456v-131.883229z m-15.532914-227.132227v116.643389h-325.311963c-61.252433 0.293074-116.350315-36.780767-139.063538-93.637092 26.376646-15.093303 56.123641-23.006297 86.60332-23.006297h377.772181zM453.97138 191.230681c0-57.58901 28.281626-111.514596 75.759587-144.338866 25.790498 61.252433 85.870635 101.110475 152.398398 100.817401h325.311963V234.459073h-325.311963c-66.527762-0.293074-126.607899 39.564969-152.398398 100.963938a175.756382 175.756382 0 0 1-75.759587-144.19233zM629.669147 366.781912c-30.333143 0-60.226674-7.912994-86.60332-23.006297 22.713223-56.856325 77.957642-93.930166 139.063538-93.637092h325.311963v116.643389H629.669147zM640.805953 1024h374.401832c4.249571 0 7.766457-3.516886 7.766457-7.766457V626.884946c-0.146537-97.007441-78.836863-175.697768-175.844305-175.844305h-38.246136c-97.007441 0.146537-175.697768 78.836863-175.844305 175.844305v389.348597c0 4.249571 3.516886 7.766457 7.766457 7.766457z m366.635375-15.532914h-119.281053V690.042358c0.439611-62.864339 40.883801-118.401832 100.37779-138.477389 12.455638 23.152833 18.903263 48.943331 18.903263 75.17344v381.728677zM808.883801 466.573555h38.246136c53.632513 0 103.74814 26.962793 133.348598 71.510017-64.329708 22.85976-107.411563 83.526045-107.997711 151.812249v318.424729H783.532914V690.042358c-0.586148-68.286205-43.668002-128.95249-107.851174-151.958786 29.600458-44.693761 79.569548-71.510017 133.202061-71.510017zM648.57241 626.884946c0-26.230109 6.447624-52.167144 18.903263-75.319977 59.640527 20.075558 99.93818 75.613051 100.37779 138.477389v318.424728h-119.281053V626.884946z" fill="#e9c9c4" opacity=".3" p-id="10024"></path></svg>