<?xml version="1.0" standalone="no"?><!DOCTYPE svg PUBLIC "-//W3C//DTD SVG 1.1//EN" "http://www.w3.org/Graphics/SVG/1.1/DTD/svg11.dtd"><svg t="1723351364766" class="icon" viewBox="0 0 1024 1024" version="1.1" xmlns="http://www.w3.org/2000/svg" p-id="4740" xmlns:xlink="http://www.w3.org/1999/xlink" width="200" height="200"><path d="M968.106667 562.773333H900.266667V125.44a96.426667 96.426667 0 0 0-23.04-62.293333 85.333333 85.333333 0 0 0-61.013334-27.733334H229.973333A80.64 80.64 0 0 0 170.666667 62.293333a93.866667 93.866667 0 0 0-24.746667 63.146667v437.333333h-68.266667a37.973333 37.973333 0 0 0-36.693333 39.253334v358.4a37.973333 37.973333 0 0 0 36.693333 39.68h890.453334a38.4 38.4 0 0 0 37.546666-39.68v-358.4a38.4 38.4 0 0 0-37.546666-39.253334z m-130.133334 0h-93.866666a37.12 37.12 0 0 0-35.413334 32.426667 203.946667 203.946667 0 0 1-63.146666 121.6 175.786667 175.786667 0 0 1-242.773334 0A200.106667 200.106667 0 0 1 341.333333 601.6a37.546667 37.546667 0 0 0-36.266666-35.413333H213.333333v-422.4a42.666667 42.666667 0 0 1 11.093334-29.866667 37.973333 37.973333 0 0 1 27.306666-12.373333h548.266667a37.973333 37.973333 0 0 1 27.306667 12.373333 42.666667 42.666667 0 0 1 10.24 28.16z" p-id="4741"></path><path d="M343.466667 384l132.693333 140.8a32.853333 32.853333 0 0 0 46.933333 0l238.933334-253.44a36.266667 36.266667 0 0 0 0-49.92 31.146667 31.146667 0 0 0-46.933334 0l-215.466666 228.266667-108.8-117.76a32 32 0 0 0-46.933334 0A35.84 35.84 0 0 0 343.466667 384" p-id="4742"></path></svg>