<?xml version="1.0" standalone="no"?><!DOCTYPE svg PUBLIC "-//W3C//DTD SVG 1.1//EN" "http://www.w3.org/Graphics/SVG/1.1/DTD/svg11.dtd"><svg t="1723016690047" class="icon" viewBox="0 0 1024 1024" version="1.1" xmlns="http://www.w3.org/2000/svg" p-id="5108" xmlns:xlink="http://www.w3.org/1999/xlink" width="200" height="200"><path d="M523.048421 948.170105L200.919579 626.041263a35.031579 35.031579 0 1 1 49.55621-49.55621L523.048421 849.057684l343.363368-343.363368a175.292632 175.292632 0 1 0-247.915789-247.91579l-67.368421 67.368421a35.031579 35.031579 0 0 1-49.556211-49.55621l67.368421-67.368421a245.301895 245.301895 0 0 1 346.893474 346.920421z" fill="#83D2EA" p-id="5109"></path><path d="M519.491368 948.170105L126.571789 555.250526A245.301895 245.301895 0 0 1 473.492211 208.330105l70.790736 70.790737a35.031579 35.031579 0 0 1-49.475368 49.529263l-70.790737-70.790737a175.292632 175.292632 0 1 0-247.915789 247.91579l343.363368 343.363368 272.599579-272.572631a35.031579 35.031579 0 0 1 49.556211 49.55621z" fill="#208BB5" p-id="5110"></path></svg>