<?xml version="1.0" standalone="no"?><!DOCTYPE svg PUBLIC "-//W3C//DTD SVG 1.1//EN" "http://www.w3.org/Graphics/SVG/1.1/DTD/svg11.dtd"><svg t="1723352896032" class="icon" viewBox="0 0 1024 1024" version="1.1" xmlns="http://www.w3.org/2000/svg" p-id="8543" xmlns:xlink="http://www.w3.org/1999/xlink" width="200" height="200"><path d="M512 202.688c164.992 0 314.368 99.52 448 298.624-133.632 199.168-283.008 298.688-448 298.688-164.992 0-314.368-99.52-448-298.688 133.632-199.104 283.008-298.624 448-298.624z m0 74.624c-126.72 0-246.272 66.88-373.312 224 122.112 151.04 236.224 218.048 373.312 224 126.784 0 246.336-66.816 373.312-224-122.048-151.04-236.16-217.984-373.312-224z" fill="#666666" p-id="8544"></path><path d="M512 352a149.312 149.312 0 1 1 0 298.688A149.312 149.312 0 0 1 512 352z m0 74.688A74.688 74.688 0 1 0 512 576a74.688 74.688 0 0 0 0-149.312z" fill="#666666" p-id="8545"></path></svg>