<svg width="38" height="38" xmlns="http://www.w3.org/2000/svg" xmlns:xlink="http://www.w3.org/1999/xlink" xml:space="preserve" overflow="hidden"><g transform="translate(-541 -619)"><path d="M573.558 631.415 573.483 631.34C572.031 629.893 569.682 629.893 568.23 631.34L567.208 632.363 565.283 630.44 566.305 629.418C567.755 627.968 567.756 625.618 566.308 624.167L566.275 624.134C564.885 622.748 562.657 622.682 561.188 623.983L561.188 620.188 558.812 620.188 558.812 623.983C557.342 622.681 555.112 622.747 553.722 624.135L553.695 624.162C552.244 625.613 552.244 627.964 553.694 629.415 553.694 629.415 553.695 629.415 553.695 629.416L554.717 630.44 552.792 632.363 551.77 631.341C550.318 629.894 547.969 629.894 546.517 631.341L546.442 631.415C544.992 632.866 544.992 635.217 546.442 636.668L546.518 636.744C547.97 638.192 550.319 638.192 551.771 636.744L552.793 635.722 554.718 637.647 553.696 638.669C552.246 640.118 552.245 642.468 553.693 643.919L553.726 643.952C555.115 645.339 557.345 645.404 558.812 644.1L558.812 647C557.553 647.655 557.062 649.207 557.717 650.467 557.961 650.936 558.343 651.319 558.812 651.562L558.812 655.812 561.188 655.812 561.188 651.562C562.447 650.908 562.938 649.355 562.283 648.096 562.039 647.626 561.657 647.244 561.188 647L561.188 644.1C562.657 645.405 564.889 645.339 566.278 643.948L566.305 643.921C567.756 642.471 567.756 640.119 566.306 638.668 566.306 638.668 566.305 638.668 566.305 638.668L565.283 637.646 567.208 635.721 568.23 636.743C569.682 638.192 572.032 638.192 573.484 636.743L573.558 636.669C575.008 635.219 575.009 632.867 573.558 631.416 573.558 631.416 573.558 631.416 573.558 631.416ZM562.701 625.812C563.223 625.291 564.068 625.289 564.592 625.808L564.625 625.841C565.148 626.364 565.148 627.212 564.625 627.736L563.602 628.758 561.678 626.834ZM561.925 630.44 560 632.362 558.075 630.44 560 628.513ZM555.374 627.736C554.851 627.213 554.851 626.365 555.374 625.842 555.375 625.841 555.376 625.84 555.377 625.839L555.404 625.812C555.928 625.29 556.775 625.29 557.298 625.812L558.32 626.834 556.398 628.758ZM550.091 635.064C549.567 635.585 548.721 635.585 548.197 635.064L548.121 634.988C547.598 634.465 547.598 633.617 548.121 633.093 548.121 633.093 548.121 633.093 548.121 633.092L548.196 633.018C548.719 632.497 549.566 632.497 550.09 633.018L551.113 634.042ZM554.471 634.042 556.398 632.117 558.32 634.042 556.398 635.966ZM560 635.721 561.925 637.646 560 639.57 558.075 637.646ZM557.299 642.272C556.776 642.793 555.931 642.794 555.407 642.274L555.374 642.241C554.851 641.718 554.851 640.87 555.374 640.347L556.398 639.325 558.322 641.249ZM564.626 640.347C565.149 640.87 565.149 641.719 564.626 642.242 564.625 642.242 564.624 642.243 564.623 642.244L564.596 642.272C564.072 642.794 563.225 642.794 562.701 642.272L561.68 641.249 563.602 639.325ZM563.602 635.966 561.68 634.042 563.602 632.117 565.529 634.042ZM571.875 634.99 571.801 635.064C571.278 635.586 570.431 635.586 569.907 635.064L568.887 634.042 569.909 633.02C570.432 632.498 571.279 632.498 571.803 633.02L571.879 633.095C572.402 633.618 572.402 634.467 571.879 634.99 571.879 634.99 571.879 634.991 571.879 634.991Z" fill="#d8c56df8"/></g></svg>