<?xml version="1.0" standalone="no"?><!DOCTYPE svg PUBLIC "-//W3C//DTD SVG 1.1//EN" "http://www.w3.org/Graphics/SVG/1.1/DTD/svg11.dtd"><svg t="1720627753366" class="icon" viewBox="0 0 1024 1024" version="1.1" xmlns="http://www.w3.org/2000/svg" p-id="9812" xmlns:xlink="http://www.w3.org/1999/xlink" width="200" height="200"><path d="M364.373333 765.098667A36.522667 36.522667 0 0 1 327.850667 802.133333H137.557333a36.522667 36.522667 0 0 1 0-73.045333h190.293334a36.522667 36.522667 0 0 1 36.522666 36.010667zM137.557333 265.216h687.616a36.522667 36.522667 0 1 0 0-73.045333H137.557333a36.522667 36.522667 0 0 0 0 73.045333zM415.573333 460.8H137.557333a36.693333 36.693333 0 0 0 0 73.216h278.016a36.693333 36.693333 0 0 0 0-73.216z m460.8 182.272c-43.52 38.4-73.898667 53.930667-95.744 53.930667 100.010667-153.6 43.52-223.573333-104.277333-308.394667 13.141333 111.786667-69.461333 161.962667-104.277333 188.928-73.898667 65.536-78.165333 169.472-8.704 235.008a189.098667 189.098667 0 0 0 134.826666 53.930667c104.277333 0 191.146667-73.216 191.146667-169.472a203.093333 203.093333 0 0 0-13.482667-54.442667z" fill="#333333" p-id="9813"></path></svg>